<svg xmlns="http://www.w3.org/2000/svg" viewBox="0 0 24 24" id="list"><path fill="#595bd4" d="M21.5 8h-14a1 1 0 0 1 0-2h14a1 1 0 0 1 0 2zm0 5h-10a1 1 0 0 1 0-2h10a1 1 0 0 1 0 2zm0 5h-6a1 1 0 0 1 0-2h6a1 1 0 0 1 0 2z" class="color6563ff svgShape"></path><circle cx="3.5" cy="7" r="1" fill="#595bd4" class="color6563ff svgShape"></circle><circle cx="7.5" cy="12" r="1" fill="#595bd4" class="color6563ff svgShape"></circle><circle cx="11.5" cy="17" r="1" fill="#595bd4" class="color6563ff svgShape"></circle></svg>